# xmcd
#
# Track frame offsets: 
#        150
#        12033
#        28052
#        44986
#        61199
#        78812
#        97310
#        112768
#        127395
#        145075
#        161954
#        180559
#        198776
#        215550
#        232603
#
# Disc length: 3333 seconds
#
# Revision: 2
# Processed by: cddbd v1.5.2PL0 Copyright (c) Steve Scherf et al.
# Submitted via: ExactAudioCopyFreeDBPlugin 1.0
#
DISCID=cc0d030f
DTITLE=Uniikki - Juokse Poika Juokse
DYEAR=2009
DGENRE=Rap
TTITLE0=Intro
TTITLE1=Vapaa
TTITLE2=Juokse Poika Juokse
TTITLE3=Uudet S‰‰nnˆt (feat. TPH)
TTITLE4=K‰‰nn‰t Mun P‰‰n
TTITLE5=Niinku Elokuvis (feat. Jimi P‰‰kallo)
TTITLE6=R‰hin‰rakkautta
TTITLE7=Haluun N‰h‰
TTITLE8=Onni
TTITLE9=Myrskyn Silm‰s (feat. Mia)
TTITLE10=Pojat On Poikii (feat. Elastinen and Spekti)
TTITLE11=Kerro Mulle (feat. Illi)
TTITLE12=Piiloon
TTITLE13=Ku Taakse Katson
TTITLE14=D‰ni [Bonus Track]
EXTD=
EXTT0=
EXTT1=
EXTT2=
EXTT3=
EXTT4=
EXTT5=
EXTT6=
EXTT7=
EXTT8=
EXTT9=
EXTT10=
EXTT11=
EXTT12=
EXTT13=
EXTT14=
PLAYORDER=
